<mxfile host="Electron" agent="Mozilla/5.0 (Windows NT 10.0; Win64; x64) AppleWebKit/537.36 (KHTML, like Gecko) draw.io/24.7.8 Chrome/128.0.6613.36 Electron/32.0.1 Safari/537.36" version="24.7.8">
  <diagram name="Seite-1" id="Pfz2-o1V6FcVZHX-TINe">
    <mxGraphModel dx="453" dy="678" grid="1" gridSize="10" guides="1" tooltips="1" connect="1" arrows="1" fold="1" page="1" pageScale="1" pageWidth="827" pageHeight="1169" math="0" shadow="0">
      <root>
        <mxCell id="0" />
        <mxCell id="1" parent="0" />
        <mxCell id="J8yQ5oY-_x14wDKMXTq_-14" style="rounded=0;orthogonalLoop=1;jettySize=auto;html=1;exitX=0.5;exitY=0.5;exitDx=0;exitDy=0;exitPerimeter=0;entryX=0;entryY=0.5;entryDx=0;entryDy=0;endArrow=none;endFill=0;" parent="1" source="J8yQ5oY-_x14wDKMXTq_-2" target="J8yQ5oY-_x14wDKMXTq_-9" edge="1">
          <mxGeometry relative="1" as="geometry" />
        </mxCell>
        <mxCell id="J8yQ5oY-_x14wDKMXTq_-2" value="User" style="shape=umlActor;verticalLabelPosition=bottom;verticalAlign=top;html=1;outlineConnect=0;" parent="1" vertex="1">
          <mxGeometry x="10" y="270" width="30" height="60" as="geometry" />
        </mxCell>
        <mxCell id="J8yQ5oY-_x14wDKMXTq_-24" style="rounded=0;orthogonalLoop=1;jettySize=auto;html=1;exitX=0.5;exitY=0.5;exitDx=0;exitDy=0;exitPerimeter=0;entryX=1;entryY=0.5;entryDx=0;entryDy=0;endArrow=none;endFill=0;" parent="1" source="J8yQ5oY-_x14wDKMXTq_-4" target="lqVkLg3i9S7f1IRJJfRt-13" edge="1">
          <mxGeometry relative="1" as="geometry" />
        </mxCell>
        <mxCell id="J8yQ5oY-_x14wDKMXTq_-4" value="System" style="shape=umlActor;verticalLabelPosition=bottom;verticalAlign=top;html=1;outlineConnect=0;" parent="1" vertex="1">
          <mxGeometry x="769" y="270" width="30" height="60" as="geometry" />
        </mxCell>
        <mxCell id="J8yQ5oY-_x14wDKMXTq_-5" value="Registrieren" style="ellipse;whiteSpace=wrap;html=1;" parent="1" vertex="1">
          <mxGeometry x="170" y="120" width="120" height="80" as="geometry" />
        </mxCell>
        <mxCell id="J8yQ5oY-_x14wDKMXTq_-9" value="Einloggen" style="ellipse;whiteSpace=wrap;html=1;" parent="1" vertex="1">
          <mxGeometry x="80" y="260" width="120" height="80" as="geometry" />
        </mxCell>
        <mxCell id="ZBo6i-VFBFjkGNY5LsLU-1" value="&lt;p style=&quot;line-height: 130%; font-size: 14px;&quot;&gt;Erstellt: Tijana Vila, Arthur Bitzer&lt;br&gt;&lt;/p&gt;" style="text;html=1;align=left;verticalAlign=middle;whiteSpace=wrap;rounded=0;" parent="1" vertex="1">
          <mxGeometry x="10" y="1100" width="146" height="60" as="geometry" />
        </mxCell>
        <mxCell id="ZBo6i-VFBFjkGNY5LsLU-2" value="&lt;font style=&quot;font-size: 18px;&quot;&gt;COFFEESTAR&lt;/font&gt;" style="text;html=1;align=center;verticalAlign=middle;whiteSpace=wrap;rounded=0;" parent="1" vertex="1">
          <mxGeometry x="260.25" y="10" width="305" height="40" as="geometry" />
        </mxCell>
        <mxCell id="ZBo6i-VFBFjkGNY5LsLU-3" value="&lt;font style=&quot;font-size: 14px;&quot;&gt;Das Kaffee Bestellsystem&lt;/font&gt;" style="text;html=1;align=center;verticalAlign=middle;whiteSpace=wrap;rounded=0;" parent="1" vertex="1">
          <mxGeometry x="252.75" y="50" width="312.5" height="30" as="geometry" />
        </mxCell>
        <mxCell id="tVfk0E93DWH9AhxwZt0S-1" value="UML-A" style="text;html=1;align=center;verticalAlign=middle;whiteSpace=wrap;rounded=0;" parent="1" vertex="1">
          <mxGeometry x="20" y="70" width="60" height="30" as="geometry" />
        </mxCell>
        <mxCell id="J8yQ5oY-_x14wDKMXTq_-1" value="" style="rounded=0;whiteSpace=wrap;html=1;fillColor=none;" parent="1" vertex="1">
          <mxGeometry x="60" y="110" width="670" height="480" as="geometry" />
        </mxCell>
        <mxCell id="lqVkLg3i9S7f1IRJJfRt-7" style="rounded=0;orthogonalLoop=1;jettySize=auto;html=1;exitX=0.5;exitY=0;exitDx=0;exitDy=0;entryX=0.5;entryY=1;entryDx=0;entryDy=0;endArrow=none;endFill=0;startArrow=none;" parent="1" source="lqVkLg3i9S7f1IRJJfRt-17" target="J8yQ5oY-_x14wDKMXTq_-9" edge="1">
          <mxGeometry relative="1" as="geometry">
            <mxPoint x="257.57359312880726" y="411.71572875253764" as="sourcePoint" />
            <mxPoint x="-69.99640687119296" y="396.71572875253787" as="targetPoint" />
          </mxGeometry>
        </mxCell>
        <mxCell id="lqVkLg3i9S7f1IRJJfRt-27" value="&amp;lt;&amp;lt;Includes&amp;gt;&amp;gt;" style="edgeLabel;html=1;align=center;verticalAlign=middle;resizable=0;points=[];" parent="lqVkLg3i9S7f1IRJJfRt-7" vertex="1" connectable="0">
          <mxGeometry x="-0.2818" y="-1" relative="1" as="geometry">
            <mxPoint as="offset" />
          </mxGeometry>
        </mxCell>
        <mxCell id="lqVkLg3i9S7f1IRJJfRt-9" value="Artikel aus Warenkorb entfernen oder Anzeigen lassen" style="ellipse;whiteSpace=wrap;html=1;" parent="1" vertex="1">
          <mxGeometry x="440" y="450" width="120" height="80" as="geometry" />
        </mxCell>
        <mxCell id="lqVkLg3i9S7f1IRJJfRt-10" value="Zahlung" style="ellipse;whiteSpace=wrap;html=1;" parent="1" vertex="1">
          <mxGeometry x="310" y="450" width="120" height="80" as="geometry" />
        </mxCell>
        <mxCell id="lqVkLg3i9S7f1IRJJfRt-11" value="Gutschein einlösen" style="ellipse;whiteSpace=wrap;html=1;" parent="1" vertex="1">
          <mxGeometry x="80" y="440" width="120" height="80" as="geometry" />
        </mxCell>
        <mxCell id="lqVkLg3i9S7f1IRJJfRt-12" value="Bestellen und Bestellstatus" style="ellipse;whiteSpace=wrap;html=1;" parent="1" vertex="1">
          <mxGeometry x="420" y="140" width="120" height="80" as="geometry" />
        </mxCell>
        <mxCell id="lqVkLg3i9S7f1IRJJfRt-13" value="Benutzerrollen und Berechtigungen verwalten" style="ellipse;whiteSpace=wrap;html=1;" parent="1" vertex="1">
          <mxGeometry x="560" y="400" width="120" height="80" as="geometry" />
        </mxCell>
        <mxCell id="lqVkLg3i9S7f1IRJJfRt-14" value="Bestellungen verwalten" style="ellipse;whiteSpace=wrap;html=1;" parent="1" vertex="1">
          <mxGeometry x="520" y="220" width="120" height="80" as="geometry" />
        </mxCell>
        <mxCell id="lqVkLg3i9S7f1IRJJfRt-15" value="Produktverfügbarkeit überwachen" style="ellipse;whiteSpace=wrap;html=1;" parent="1" vertex="1">
          <mxGeometry x="540" y="310" width="120" height="80" as="geometry" />
        </mxCell>
        <mxCell id="lqVkLg3i9S7f1IRJJfRt-16" value="Gutscheine erstellen" style="ellipse;whiteSpace=wrap;html=1;" parent="1" vertex="1">
          <mxGeometry x="570" y="500" width="120" height="80" as="geometry" />
        </mxCell>
        <mxCell id="lqVkLg3i9S7f1IRJJfRt-17" value="Wunschliste verwalten" style="ellipse;whiteSpace=wrap;html=1;" parent="1" vertex="1">
          <mxGeometry x="200" y="390" width="120" height="80" as="geometry" />
        </mxCell>
        <mxCell id="lqVkLg3i9S7f1IRJJfRt-18" style="rounded=0;orthogonalLoop=1;jettySize=auto;html=1;exitX=0.5;exitY=0.5;exitDx=0;exitDy=0;exitPerimeter=0;entryX=1;entryY=0.5;entryDx=0;entryDy=0;endArrow=none;endFill=0;" parent="1" source="J8yQ5oY-_x14wDKMXTq_-4" target="lqVkLg3i9S7f1IRJJfRt-15" edge="1">
          <mxGeometry relative="1" as="geometry">
            <mxPoint x="704" y="300" as="sourcePoint" />
            <mxPoint x="649.9999999999955" y="545" as="targetPoint" />
          </mxGeometry>
        </mxCell>
        <mxCell id="lqVkLg3i9S7f1IRJJfRt-19" style="rounded=0;orthogonalLoop=1;jettySize=auto;html=1;exitX=0.5;exitY=0.5;exitDx=0;exitDy=0;exitPerimeter=0;entryX=1;entryY=0;entryDx=0;entryDy=0;endArrow=none;endFill=0;" parent="1" source="J8yQ5oY-_x14wDKMXTq_-4" target="lqVkLg3i9S7f1IRJJfRt-16" edge="1">
          <mxGeometry relative="1" as="geometry">
            <mxPoint x="804" y="320" as="sourcePoint" />
            <mxPoint x="749.9999999999955" y="565" as="targetPoint" />
          </mxGeometry>
        </mxCell>
        <mxCell id="lqVkLg3i9S7f1IRJJfRt-20" style="rounded=0;orthogonalLoop=1;jettySize=auto;html=1;exitX=0.5;exitY=0.5;exitDx=0;exitDy=0;exitPerimeter=0;entryX=1;entryY=0.5;entryDx=0;entryDy=0;endArrow=none;endFill=0;" parent="1" source="J8yQ5oY-_x14wDKMXTq_-4" target="lqVkLg3i9S7f1IRJJfRt-14" edge="1">
          <mxGeometry relative="1" as="geometry">
            <mxPoint x="733" y="290" as="sourcePoint" />
            <mxPoint x="678.9999999999955" y="535" as="targetPoint" />
          </mxGeometry>
        </mxCell>
        <mxCell id="lqVkLg3i9S7f1IRJJfRt-23" style="rounded=0;orthogonalLoop=1;jettySize=auto;html=1;entryX=0.5;entryY=0;entryDx=0;entryDy=0;endArrow=none;endFill=0;exitX=0.5;exitY=0.5;exitDx=0;exitDy=0;exitPerimeter=0;" parent="1" source="J8yQ5oY-_x14wDKMXTq_-2" target="lqVkLg3i9S7f1IRJJfRt-11" edge="1">
          <mxGeometry relative="1" as="geometry">
            <mxPoint x="30" y="310" as="sourcePoint" />
            <mxPoint x="136.50359312880727" y="419.99572875253807" as="targetPoint" />
          </mxGeometry>
        </mxCell>
        <mxCell id="lqVkLg3i9S7f1IRJJfRt-24" value="Konto verwalten" style="ellipse;whiteSpace=wrap;html=1;" parent="1" vertex="1">
          <mxGeometry x="310" y="200" width="120" height="80" as="geometry" />
        </mxCell>
        <mxCell id="lqVkLg3i9S7f1IRJJfRt-25" style="rounded=0;orthogonalLoop=1;jettySize=auto;html=1;exitX=0;exitY=1;exitDx=0;exitDy=0;entryX=0.343;entryY=0.05;entryDx=0;entryDy=0;endArrow=none;endFill=0;startArrow=none;entryPerimeter=0;" parent="1" source="J8yQ5oY-_x14wDKMXTq_-5" target="J8yQ5oY-_x14wDKMXTq_-9" edge="1">
          <mxGeometry relative="1" as="geometry">
            <mxPoint x="373.3535931288068" y="340.3357287525381" as="sourcePoint" />
            <mxPoint x="290.0000000000002" y="259.6600000000002" as="targetPoint" />
          </mxGeometry>
        </mxCell>
        <mxCell id="lqVkLg3i9S7f1IRJJfRt-41" value="&amp;lt;&amp;lt;Extend&amp;gt;&amp;gt;" style="edgeLabel;html=1;align=center;verticalAlign=middle;resizable=0;points=[];" parent="lqVkLg3i9S7f1IRJJfRt-25" vertex="1" connectable="0">
          <mxGeometry x="-0.3771" y="-1" relative="1" as="geometry">
            <mxPoint as="offset" />
          </mxGeometry>
        </mxCell>
        <mxCell id="lqVkLg3i9S7f1IRJJfRt-30" value="" style="rounded=0;orthogonalLoop=1;jettySize=auto;html=1;exitX=0.652;exitY=0.993;exitDx=0;exitDy=0;endArrow=none;endFill=0;entryX=0.5;entryY=0;entryDx=0;entryDy=0;exitPerimeter=0;" parent="1" source="lqVkLg3i9S7f1IRJJfRt-4" target="lqVkLg3i9S7f1IRJJfRt-9" edge="1">
          <mxGeometry relative="1" as="geometry">
            <mxPoint x="364.61999999999796" y="390" as="sourcePoint" />
            <mxPoint x="479.9957977341261" y="410.07635571070455" as="targetPoint" />
            <Array as="points" />
          </mxGeometry>
        </mxCell>
        <mxCell id="lqVkLg3i9S7f1IRJJfRt-34" value="" style="rounded=0;orthogonalLoop=1;jettySize=auto;html=1;exitX=0.964;exitY=0.708;exitDx=0;exitDy=0;endArrow=none;endFill=0;exitPerimeter=0;startArrow=none;" parent="1" source="lqVkLg3i9S7f1IRJJfRt-4" edge="1">
          <mxGeometry relative="1" as="geometry">
            <mxPoint x="256.5" y="320.0000000000002" as="sourcePoint" />
            <mxPoint x="371.9353270507488" y="339.9226600666591" as="targetPoint" />
            <Array as="points" />
          </mxGeometry>
        </mxCell>
        <mxCell id="lqVkLg3i9S7f1IRJJfRt-38" value="" style="rounded=0;orthogonalLoop=1;jettySize=auto;html=1;exitX=0.357;exitY=1.059;exitDx=0;exitDy=0;endArrow=none;endFill=0;entryX=0.631;entryY=0.023;entryDx=0;entryDy=0;exitPerimeter=0;entryPerimeter=0;" parent="1" source="lqVkLg3i9S7f1IRJJfRt-4" target="lqVkLg3i9S7f1IRJJfRt-10" edge="1">
          <mxGeometry relative="1" as="geometry">
            <mxPoint x="370.0000000000002" y="399.44000000000005" as="sourcePoint" />
            <mxPoint x="421.76" y="459.9999999999998" as="targetPoint" />
            <Array as="points" />
          </mxGeometry>
        </mxCell>
        <mxCell id="lqVkLg3i9S7f1IRJJfRt-40" style="rounded=0;orthogonalLoop=1;jettySize=auto;html=1;endArrow=none;endFill=0;exitX=0.392;exitY=1;exitDx=0;exitDy=0;entryX=1;entryY=0;entryDx=0;entryDy=0;exitPerimeter=0;" parent="1" source="lqVkLg3i9S7f1IRJJfRt-12" target="lqVkLg3i9S7f1IRJJfRt-4" edge="1">
          <mxGeometry relative="1" as="geometry">
            <mxPoint x="35" y="310.0000000000002" as="sourcePoint" />
            <mxPoint x="270" y="540" as="targetPoint" />
          </mxGeometry>
        </mxCell>
        <mxCell id="lqVkLg3i9S7f1IRJJfRt-42" value="" style="rounded=0;orthogonalLoop=1;jettySize=auto;html=1;exitX=0.954;exitY=0.283;exitDx=0;exitDy=0;endArrow=none;endFill=0;exitPerimeter=0;entryX=0.058;entryY=0.825;entryDx=0;entryDy=0;entryPerimeter=0;" parent="1" source="J8yQ5oY-_x14wDKMXTq_-9" target="lqVkLg3i9S7f1IRJJfRt-24" edge="1">
          <mxGeometry relative="1" as="geometry">
            <mxPoint x="266.5" y="330.0000000000002" as="sourcePoint" />
            <mxPoint x="381.9353270507488" y="349.9226600666591" as="targetPoint" />
            <Array as="points" />
          </mxGeometry>
        </mxCell>
        <mxCell id="lqVkLg3i9S7f1IRJJfRt-4" value="Artikel in Warenkorb" style="ellipse;whiteSpace=wrap;html=1;" parent="1" vertex="1">
          <mxGeometry x="340" y="300" width="120" height="80" as="geometry" />
        </mxCell>
        <mxCell id="lqVkLg3i9S7f1IRJJfRt-44" value="" style="rounded=0;orthogonalLoop=1;jettySize=auto;html=1;exitX=0.964;exitY=0.708;exitDx=0;exitDy=0;endArrow=none;endFill=0;exitPerimeter=0;" parent="1" source="J8yQ5oY-_x14wDKMXTq_-9" target="lqVkLg3i9S7f1IRJJfRt-4" edge="1">
          <mxGeometry relative="1" as="geometry">
            <mxPoint x="195.68000000000006" y="316.6400000000001" as="sourcePoint" />
            <mxPoint x="371.9353270507488" y="339.9226600666591" as="targetPoint" />
            <Array as="points" />
          </mxGeometry>
        </mxCell>
        <mxCell id="Vr9eyuRIODGTGQxhOV14-1" value="&amp;lt;&amp;lt;Includes&amp;gt;&amp;gt;" style="edgeLabel;html=1;align=center;verticalAlign=middle;resizable=0;points=[];" vertex="1" connectable="0" parent="1">
          <mxGeometry x="270.00186813186826" y="320.00494505494515" as="geometry" />
        </mxCell>
        <mxCell id="Vr9eyuRIODGTGQxhOV14-2" value="&amp;lt;&amp;lt;Includes&amp;gt;&amp;gt;" style="edgeLabel;html=1;align=center;verticalAlign=middle;resizable=0;points=[];" vertex="1" connectable="0" parent="1">
          <mxGeometry x="252.75186813186826" y="270.00494505494515" as="geometry" />
        </mxCell>
        <mxCell id="Vr9eyuRIODGTGQxhOV14-3" value="&amp;lt;&amp;lt;Includes&amp;gt;&amp;gt;" style="edgeLabel;html=1;align=center;verticalAlign=middle;resizable=0;points=[];" vertex="1" connectable="0" parent="1">
          <mxGeometry x="450.00186813186826" y="270.00494505494515" as="geometry" />
        </mxCell>
        <mxCell id="Vr9eyuRIODGTGQxhOV14-4" value="&amp;lt;&amp;lt;Includes&amp;gt;&amp;gt;" style="edgeLabel;html=1;align=center;verticalAlign=middle;resizable=0;points=[];" vertex="1" connectable="0" parent="1">
          <mxGeometry x="460.00186813186826" y="410.00494505494515" as="geometry" />
        </mxCell>
        <mxCell id="Vr9eyuRIODGTGQxhOV14-5" value="&amp;lt;&amp;lt;Includes&amp;gt;&amp;gt;" style="edgeLabel;html=1;align=center;verticalAlign=middle;resizable=0;points=[];" vertex="1" connectable="0" parent="1">
          <mxGeometry x="380.00186813186826" y="410.00494505494515" as="geometry" />
        </mxCell>
      </root>
    </mxGraphModel>
  </diagram>
</mxfile>
